STARTFONT 2.1
FONT -Victor Carbajo-Rought-Medium-R-Normal--18-180-72-72-P-98-MacOS Roman-
SIZE 18 72 72
FONTBOUNDINGBOX 18 22 -3 -4
STARTPROPERTIES 42
FAMILY_NAME "Rought"
DEFAULT_CHAR 1
FOUNDRY "Victor Carbajo"
COPYRIGHT "Copyright (c) 2002 Victor Carbajo. www.carbajo.net"
CODEPAGE "MacOS Roman"
TRADEMARK "Rought is a trademark of www.carbajo.net"
CREATION_YEAR 2002
WEIGHT_NAME "Medium"
SLANT "R"
SETWIDTH_NAME "Normal"
SPACING "P"
RELATIVE_SETWIDTH 50
RELATIVE_WEIGHT 50
HI_VERSION 1
VENDOR "PYRS"
CP_RANGE_1 536871185
FONTNAME_REGISTRY "-"
CHARSET_REGISTRY "MacOS Roman"
BREAK_CHAR -1
PIXEL_SIZE 16
POINT_SIZE 180
FONT_ASCENT 18
FONT_DESCENT 4
RESOLUTION_X 72
RESOLUTION_Y 72
AVERAGE_WIDTH 98
MIN_SPACE 5
NORM_SPACE 6
MAX_SPACE 9
END_SPACE 6
SUPERSCRIPT_X 6
SUPERSCRIPT_Y 6
SUBSCRIPT_X 6
SUBSCRIPT_Y 6
UNDERLINE_POSITION 2
X_HEIGHT 11
AVG_CAPITAL_WIDTH 11
AVG_LOWERCASE_WIDTH 9
CAP_HEIGHT 14
SUPERSCRIPT_SIZE 11
SUBSCRIPT_SIZE 11
LEADING 1
ENDPROPERTIES
CHARS 227
STARTCHAR FLffff
ENCODING 1
SWIDTH 555 0
DWIDTH 10 0
BBX 8 14 0 0
BITMAP
FF
81
81
81
81
81
81
81
81
81
81
81
81
FF
ENDCHAR
STARTCHAR FL0009
ENCODING 9
SWIDTH 666 0
DWIDTH 12 0
BBX 0 0 0 0
BITMAP
ENDCHAR
STARTCHAR FL000d
ENCODING 13
SWIDTH 0 0
DWIDTH 0 0
BBX 0 0 0 0
BITMAP
ENDCHAR
STARTCHAR space
ENCODING 32
SWIDTH 333 0
DWIDTH 6 0
BBX 0 0 0 0
BITMAP
ENDCHAR
STARTCHAR exclam
ENCODING 33
SWIDTH 277 0
DWIDTH 5 0
BBX 2 14 1 0
BITMAP
D3
DF
C1
E4
D3
DF
F9
CC
D3
D4
04
1C
D3
DF
ENDCHAR
STARTCHAR quotedbl
ENCODING 34
SWIDTH 444 0
DWIDTH 8 0
BBX 6 4 0 10
BITMAP
CF
CF
CD
CC
ENDCHAR
STARTCHAR numbersign
ENCODING 35
SWIDTH 666 0
DWIDTH 12 0
BBX 10 11 0 0
BITMAP
199E
1984
7FDF
7FFC
330F
3312
3335
FFA8
FFA0
662E
662E
ENDCHAR
STARTCHAR dollar
ENCODING 36
SWIDTH 611 0
DWIDTH 11 0
BBX 9 16 0 -2
BITMAP
061E
0604
7F9F
7FF4
CC00
CC06
7C6F
7C6D
1F00
1F18
1980
19D8
FF1F
FF04
301E
3024
ENDCHAR
STARTCHAR percent
ENCODING 37
SWIDTH 555 0
DWIDTH 10 0
BBX 8 14 0 0
BITMAP
43
E3
A6
A6
EC
4C
18
18
32
37
65
65
C7
C2
ENDCHAR
STARTCHAR ampersand
ENCODING 38
SWIDTH 777 0
DWIDTH 14 0
BBX 12 14 0 0
BITMAP
3C0E
7E04
660F
6604
7E00
3C04
7C09
EE33
C770
C3E8
E1C0
67E8
7F70
1C30
ENDCHAR
STARTCHAR quotesingle
ENCODING 39
SWIDTH 277 0
DWIDTH 5 0
BBX 2 4 1 10
BITMAP
D3
DE
FD
C4
ENDCHAR
STARTCHAR parenleft
ENCODING 40
SWIDTH 388 0
DWIDTH 7 0
BBX 5 16 0 -1
BITMAP
1B
36
65
64
C3
C7
C2
C4
C3
C7
C0
C4
63
66
34
1C
ENDCHAR
STARTCHAR parenright
ENCODING 41
SWIDTH 388 0
DWIDTH 7 0
BBX 5 16 0 -1
BITMAP
C3
66
35
34
1B
18
19
1C
1E
1A
19
1B
34
31
67
C6
ENDCHAR
STARTCHAR asterisk
ENCODING 42
SWIDTH 666 0
DWIDTH 12 0
BBX 10 10 0 2
BITMAP
0C1E
6DAC
7F9F
3F04
FFC0
FFD0
3F00
7FA8
6D80
0C18
ENDCHAR
STARTCHAR plus
ENCODING 43
SWIDTH 666 0
DWIDTH 12 0
BBX 10 10 0 2
BITMAP
0C1E
0C2C
0C1E
0C3C
FFC0
FFC0
0C00
0C00
0C00
0C18
ENDCHAR
STARTCHAR comma
ENCODING 44
SWIDTH 333 0
DWIDTH 6 0
BBX 3 5 0 -2
BITMAP
73
7E
75
CC
93
ENDCHAR
STARTCHAR hyphen
ENCODING 45
SWIDTH 500 0
DWIDTH 9 0
BBX 7 2 0 6
BITMAP
FF
FE
ENDCHAR
STARTCHAR period
ENCODING 46
SWIDTH 333 0
DWIDTH 6 0
BBX 2 3 0 0
BITMAP
D3
DE
F5
ENDCHAR
STARTCHAR slash
ENCODING 47
SWIDTH 555 0
DWIDTH 10 0
BBX 8 14 0 0
BITMAP
03
03
06
06
0C
0C
18
18
30
30
60
60
C0
C0
ENDCHAR
STARTCHAR zero
ENCODING 48
SWIDTH 611 0
DWIDTH 11 0
BBX 9 14 0 0
BITMAP
1C1F
3E1C
771F
6374
E380
C1E0
DD80
DD90
C1F2
E3E1
6365
7700
3E00
1C20
ENDCHAR
STARTCHAR one
ENCODING 49
SWIDTH 500 0
DWIDTH 9 0
BBX 6 14 0 0
BITMAP
1F
3F
7E
EC
CF
0F
0D
0C
0C
0C
0C
0C
0E
0D
ENDCHAR
STARTCHAR two
ENCODING 50
SWIDTH 555 0
DWIDTH 10 0
BBX 8 14 0 0
BITMAP
F8
FE
0E
03
03
07
06
0E
1C
38
70
E0
FF
FF
ENDCHAR
STARTCHAR three
ENCODING 51
SWIDTH 555 0
DWIDTH 10 0
BBX 8 14 0 0
BITMAP
F8
FE
0E
03
03
07
FE
FE
07
03
03
0E
FE
F8
ENDCHAR
STARTCHAR four
ENCODING 52
SWIDTH 555 0
DWIDTH 10 0
BBX 8 14 0 0
BITMAP
0F
1F
1B
33
33
63
63
C3
FF
FF
03
03
03
03
ENDCHAR
STARTCHAR five
ENCODING 53
SWIDTH 555 0
DWIDTH 10 0
BBX 8 14 0 0
BITMAP
FE
FE
C0
C0
C0
F8
FE
0E
03
03
03
0E
FE
F8
ENDCHAR
STARTCHAR six
ENCODING 54
SWIDTH 611 0
DWIDTH 11 0
BBX 9 14 0 0
BITMAP
0F1E
3F2C
781F
6034
E062
C07A
FE39
FF6E
C36D
C1F3
C1A5
7730
7F00
1C20
ENDCHAR
STARTCHAR seven
ENCODING 55
SWIDTH 555 0
DWIDTH 10 0
BBX 9 14 0 0
BITMAP
FF9E
FFA4
0320
034C
0600
0630
0C00
0C10
1865
1872
3065
307C
6000
6020
ENDCHAR
STARTCHAR eight
ENCODING 56
SWIDTH 666 0
DWIDTH 12 0
BBX 10 14 0 0
BITMAP
1E1E
7FA4
739E
C0F4
C0C0
E1D0
7F80
7F98
E1E6
C0F8
C0CE
73BF
7F80
1E20
ENDCHAR
STARTCHAR nine
ENCODING 57
SWIDTH 611 0
DWIDTH 11 0
BBX 9 14 0 0
BITMAP
1C1E
7F24
771E
C1B4
C180
6180
7F80
3F80
0195
0390
0300
0F20
7E00
7820
ENDCHAR
STARTCHAR colon
ENCODING 58
SWIDTH 333 0
DWIDTH 6 0
BBX 2 11 1 0
BITMAP
D3
DE
EE
24
13
1E
24
1C
C0
C0
C0
ENDCHAR
STARTCHAR semicolon
ENCODING 59
SWIDTH 333 0
DWIDTH 6 0
BBX 3 13 0 -2
BITMAP
73
7E
6E
04
13
1F
19
0C
76
76
6A
C8
93
ENDCHAR
STARTCHAR less
ENCODING 60
SWIDTH 444 0
DWIDTH 8 0
BBX 6 9 0 1
BITMAP
0F
1E
3A
70
E3
73
3A
1C
0C
ENDCHAR
STARTCHAR equal
ENCODING 61
SWIDTH 611 0
DWIDTH 11 0
BBX 9 6 0 3
BITMAP
FF9F
FFAC
001E
003C
FF80
FF90
ENDCHAR
STARTCHAR greater
ENCODING 62
SWIDTH 444 0
DWIDTH 8 0
BBX 6 9 0 1
BITMAP
C3
E3
71
38
1F
3B
70
E0
C0
ENDCHAR
STARTCHAR question
ENCODING 63
SWIDTH 611 0
DWIDTH 11 0
BBX 9 14 0 0
BITMAP
1C1F
7F54
771E
C19C
C1C0
0380
0F00
1E40
1840
1800
0000
0018
1800
1820
ENDCHAR
STARTCHAR at
ENCODING 64
SWIDTH 888 0
DWIDTH 16 0
BBX 14 14 0 -1
BITMAP
0782
1FE0
3CF2
7038
6798
EFDC
CCCC
CCDC
EFF8
6771
7001
3C01
1F80
0780
ENDCHAR
STARTCHAR A
ENCODING 65
SWIDTH 611 0
DWIDTH 11 0
BBX 9 14 0 0
BITMAP
1C1E
7F44
6320
E3DC
C182
C181
FF8E
FF8E
C180
C1FF
C190
C1F9
C180
C1A0
ENDCHAR
STARTCHAR B
ENCODING 66
SWIDTH 611 0
DWIDTH 11 0
BBX 9 14 0 0
BITMAP
FC1E
FF44
C71E
C1A4
C19E
C38C
FF1F
FF7C
C39F
C190
C1A5
C728
FF00
FC20
ENDCHAR
STARTCHAR C
ENCODING 67
SWIDTH 555 0
DWIDTH 10 0
BBX 8 14 0 0
BITMAP
0F
3F
78
60
E0
C0
C0
C0
C0
E0
60
78
3F
0F
ENDCHAR
STARTCHAR D
ENCODING 68
SWIDTH 611 0
DWIDTH 11 0
BBX 9 14 0 0
BITMAP
F81F
FE44
CF1E
C314
C39E
C194
C1A0
C19C
C180
C3A8
C300
CF38
FE00
F820
ENDCHAR
STARTCHAR E
ENCODING 69
SWIDTH 555 0
DWIDTH 10 0
BBX 8 14 0 0
BITMAP
FF
FF
C0
C0
C0
C0
FF
FF
C0
C0
C0
C0
FF
FF
ENDCHAR
STARTCHAR F
ENCODING 70
SWIDTH 555 0
DWIDTH 10 0
BBX 8 14 0 0
BITMAP
FF
FF
C0
C0
C0
C0
FF
FF
C0
C0
C0
C0
C0
C0
ENDCHAR
STARTCHAR G
ENCODING 71
SWIDTH 611 0
DWIDTH 11 0
BBX 9 14 0 0
BITMAP
0F9E
3FCC
781F
6054
E000
C000
C780
C780
C180
E180
6180
7980
3F80
0FA0
ENDCHAR
STARTCHAR H
ENCODING 72
SWIDTH 611 0
DWIDTH 11 0
BBX 9 14 0 0
BITMAP
C19F
C18C
C19E
C1E4
C180
C1B0
FF80
FF90
C19F
C1D4
C19E
C1BC
C180
C1A0
ENDCHAR
STARTCHAR I
ENCODING 73
SWIDTH 222 0
DWIDTH 4 0
BBX 2 14 0 0
BITMAP
D3
DF
FD
CC
D3
DE
E4
D4
F3
FE
F5
D4
D3
DE
ENDCHAR
STARTCHAR J
ENCODING 74
SWIDTH 500 0
DWIDTH 9 0
BBX 7 14 0 0
BITMAP
07
07
07
06
07
07
07
06
07
0F
0C
3C
F9
E0
ENDCHAR
STARTCHAR K
ENCODING 75
SWIDTH 611 0
DWIDTH 11 0
BBX 10 14 0 0
BITMAP
C19F
C38C
C720
CE3C
DC00
F800
F00C
F83C
DC00
CE04
C700
C380
C1C0
C0E0
ENDCHAR
STARTCHAR L
ENCODING 76
SWIDTH 500 0
DWIDTH 9 0
BBX 8 14 0 0
BITMAP
C0
C0
C0
C0
C0
C0
C0
C0
C0
C0
C0
C0
FF
FF
ENDCHAR
STARTCHAR M
ENCODING 77
SWIDTH 777 0
DWIDTH 14 0
BBX 12 14 0 0
BITMAP
E07E
E074
F0FF
F0F4
D9B0
D9B0
CF30
CF30
C630
C630
C030
C030
C030
C030
ENDCHAR
STARTCHAR N
ENCODING 78
SWIDTH 666 0
DWIDTH 12 0
BBX 10 14 0 0
BITMAP
E0DE
E0C4
F0E0
F0CC
D8C6
D8C6
CCCE
CCFC
C6E0
C6C0
C3C0
C3FC
C1C0
C1E0
ENDCHAR
STARTCHAR O
ENCODING 79
SWIDTH 722 0
DWIDTH 13 0
BBX 11 14 0 0
BITMAP
0E1E
3F84
7BDF
60D4
E0E0
C074
C07F
C064
C060
E0F8
60C0
7BD0
3F80
0E00
ENDCHAR
STARTCHAR P
ENCODING 80
SWIDTH 611 0
DWIDTH 11 0
BBX 9 14 0 0
BITMAP
FC1E
FF64
C71E
C1C4
C1AD
C734
FF1A
FC74
C00A
C010
C045
C03C
C000
C020
ENDCHAR
STARTCHAR Q
ENCODING 81
SWIDTH 722 0
DWIDTH 13 0
BBX 13 18 0 -4
BITMAP
0E06
3F84
7BC7
60C4
E0E6
C064
C065
C064
C060
E0E0
60C0
7BC0
3F86
0E04
0606
0784
03F8
00F8
ENDCHAR
STARTCHAR R
ENCODING 82
SWIDTH 611 0
DWIDTH 11 0
BBX 10 14 0 0
BITMAP
FC1E
FF14
C720
C19C
C1BE
C73F
FF0F
FC0F
CC00
CC08
C600
C728
C3C0
C0E0
ENDCHAR
STARTCHAR S
ENCODING 83
SWIDTH 611 0
DWIDTH 11 0
BBX 9 14 0 0
BITMAP
1F9E
7FD4
7020
C00C
C01E
700C
7C1E
1F34
0702
0181
018A
070A
FF00
FC20
ENDCHAR
STARTCHAR T
ENCODING 84
SWIDTH 611 0
DWIDTH 11 0
BBX 10 14 0 0
BITMAP
FFDE
FFD4
0C1E
0C24
0C00
0C00
0C00
0C00
0C3F
0C00
0C00
0C03
0C00
0C20
ENDCHAR
STARTCHAR U
ENCODING 85
SWIDTH 611 0
DWIDTH 11 0
BBX 9 14 0 0
BITMAP
C19F
C1BC
C19F
C1FC
C1B0
C1B0
C1B0
C1B0
C1B0
C1B0
E380
6300
7F00
1C20
ENDCHAR
STARTCHAR V
ENCODING 86
SWIDTH 722 0
DWIDTH 13 0
BBX 11 14 0 0
BITMAP
C07F
C07C
C07F
60DC
60C0
60C0
3180
3180
3182
1B01
1B10
1F10
0E00
0E00
ENDCHAR
STARTCHAR W
ENCODING 87
SWIDTH 944 0
DWIDTH 17 0
BBX 15 14 0 0
BITMAP
C007
C006
C007
C006
600D
600C
610C
638C
3399
36D8
36D8
3EF8
1C70
1C70
ENDCHAR
STARTCHAR X
ENCODING 88
SWIDTH 555 0
DWIDTH 10 0
BBX 8 14 0 0
BITMAP
C3
C3
66
66
3C
3C
18
18
3C
3C
66
66
C3
C3
ENDCHAR
STARTCHAR Y
ENCODING 89
SWIDTH 666 0
DWIDTH 12 0
BBX 10 14 0 0
BITMAP
C0DF
C0DC
619F
61AC
3320
3320
1E00
1E00
0C00
0C00
0C00
0C00
0C00
0C20
ENDCHAR
STARTCHAR Z
ENCODING 90
SWIDTH 555 0
DWIDTH 10 0
BBX 8 14 0 0
BITMAP
FF
FF
06
06
0C
0C
18
18
30
30
60
60
FF
FF
ENDCHAR
STARTCHAR bracketleft
ENCODING 91
SWIDTH 333 0
DWIDTH 6 0
BBX 4 18 0 -2
BITMAP
F3
FF
CB
CC
C3
C0
C2
C4
C7
C0
C1
C0
C1
C0
C7
C0
F0
F0
ENDCHAR
STARTCHAR backslash
ENCODING 92
SWIDTH 611 0
DWIDTH 11 0
BBX 9 16 0 -1
BITMAP
C014
C01C
6020
6064
3072
3066
186D
186E
0C00
0C28
0600
0620
0320
0304
01A0
01D4
ENDCHAR
STARTCHAR bracketright
ENCODING 93
SWIDTH 333 0
DWIDTH 6 0
BBX 4 18 0 -2
BITMAP
F3
FF
3C
34
33
30
30
34
33
3F
3C
34
33
3F
37
3C
F0
F0
ENDCHAR
STARTCHAR asciicircum
ENCODING 94
SWIDTH 555 0
DWIDTH 10 0
BBX 8 4 0 14
BITMAP
18
3C
7E
E7
ENDCHAR
STARTCHAR underscore
ENCODING 95
SWIDTH 777 0
DWIDTH 14 0
BBX 12 2 0 -2
BITMAP
FFFF
FFF4
ENDCHAR
STARTCHAR grave
ENCODING 96
SWIDTH 444 0
DWIDTH 8 0
BBX 5 3 1 14
BITMAP
E3
77
3B
ENDCHAR
STARTCHAR a
ENCODING 97
SWIDTH 555 0
DWIDTH 10 0
BBX 8 11 0 0
BITMAP
78
7E
0E
03
3F
7F
E3
C3
CF
FF
7B
ENDCHAR
STARTCHAR b
ENCODING 98
SWIDTH 555 0
DWIDTH 10 0
BBX 8 15 0 0
BITMAP
C0
C0
C0
C0
F8
FE
CE
C3
C3
C3
C3
C3
CE
FE
F8
ENDCHAR
STARTCHAR c
ENCODING 99
SWIDTH 500 0
DWIDTH 9 0
BBX 7 11 0 0
BITMAP
1F
7F
71
C0
C1
C0
C0
C0
70
7E
1E
ENDCHAR
STARTCHAR d
ENCODING 100
SWIDTH 555 0
DWIDTH 10 0
BBX 8 15 0 0
BITMAP
03
03
03
03
1F
7F
73
C3
C3
C3
C3
C3
73
7F
1F
ENDCHAR
STARTCHAR e
ENCODING 101
SWIDTH 555 0
DWIDTH 10 0
BBX 8 11 0 0
BITMAP
1E
7F
73
C3
FF
FE
C0
C0
70
7E
1E
ENDCHAR
STARTCHAR f
ENCODING 102
SWIDTH 388 0
DWIDTH 7 0
BBX 6 15 0 0
BITMAP
1F
7C
70
C0
C3
C3
F8
F8
C0
C0
C0
C2
C0
C0
C0
ENDCHAR
STARTCHAR g
ENCODING 103
SWIDTH 555 0
DWIDTH 10 0
BBX 8 15 0 -4
BITMAP
1F
7F
73
C3
C3
C3
C3
C3
73
7F
1F
03
06
7E
78
ENDCHAR
STARTCHAR h
ENCODING 104
SWIDTH 555 0
DWIDTH 10 0
BBX 8 15 0 0
BITMAP
C0
C0
C0
C0
F8
FE
CE
C3
C3
C3
C3
C3
C3
C3
C3
ENDCHAR
STARTCHAR i
ENCODING 105
SWIDTH 222 0
DWIDTH 4 0
BBX 2 15 0 0
BITMAP
D3
DF
3E
24
D3
DF
CF
D4
C0
C0
C1
F0
C0
C0
C0
ENDCHAR
STARTCHAR j
ENCODING 106
SWIDTH 222 0
DWIDTH 4 0
BBX 5 19 -3 -4
BITMAP
1B
1F
06
04
1B
1F
1C
1C
18
18
19
18
18
18
18
30
30
E0
C0
ENDCHAR
STARTCHAR k
ENCODING 107
SWIDTH 500 0
DWIDTH 9 0
BBX 7 15 0 0
BITMAP
C1
C0
C0
C0
C7
CF
DD
F8
F0
E0
F0
F8
DC
CE
C6
ENDCHAR
STARTCHAR l
ENCODING 108
SWIDTH 222 0
DWIDTH 4 0
BBX 2 15 0 0
BITMAP
D3
DF
EC
CC
D3
DF
FA
EC
C0
C0
C0
E0
C0
C0
C7
ENDCHAR
STARTCHAR m
ENCODING 109
SWIDTH 888 0
DWIDTH 16 0
BBX 14 11 0 0
BITMAP
FFE3
FFF8
C33B
C30C
C30E
C30E
C30C
C30C
C30E
C30C
C30C
ENDCHAR
STARTCHAR n
ENCODING 110
SWIDTH 555 0
DWIDTH 10 0
BBX 8 11 0 0
BITMAP
F8
FE
CE
C3
C3
C3
C3
C3
C3
C3
C3
ENDCHAR
STARTCHAR o
ENCODING 111
SWIDTH 666 0
DWIDTH 12 0
BBX 10 11 0 0
BITMAP
1E1F
7F8C
739F
C0EC
C0C0
C0E0
C0C0
C0C0
739E
7FAC
1E1F
ENDCHAR
STARTCHAR p
ENCODING 112
SWIDTH 555 0
DWIDTH 10 0
BBX 8 15 0 -4
BITMAP
F8
FE
CE
C3
C3
C3
C3
C3
CE
FE
F8
C0
C0
C0
C0
ENDCHAR
STARTCHAR q
ENCODING 113
SWIDTH 555 0
DWIDTH 10 0
BBX 8 15 0 -4
BITMAP
1F
7F
73
C3
C3
C3
C3
C3
73
7F
1F
03
03
03
03
ENDCHAR
STARTCHAR r
ENCODING 114
SWIDTH 444 0
DWIDTH 8 0
BBX 6 11 0 0
BITMAP
DF
FF
F0
E0
E3
C0
C3
C0
C0
C0
C0
ENDCHAR
STARTCHAR s
ENCODING 115
SWIDTH 500 0
DWIDTH 9 0
BBX 7 11 0 0
BITMAP
7F
FE
C0
C0
71
7C
1C
06
06
FE
FC
ENDCHAR
STARTCHAR t
ENCODING 116
SWIDTH 388 0
DWIDTH 7 0
BBX 6 15 0 0
BITMAP
C3
C0
C0
C0
FB
FA
C3
C0
C3
C0
C3
C0
63
7C
1F
ENDCHAR
STARTCHAR u
ENCODING 117
SWIDTH 555 0
DWIDTH 10 0
BBX 8 11 0 0
BITMAP
C3
C3
C3
C3
C3
C3
C3
C3
73
7F
1F
ENDCHAR
STARTCHAR v
ENCODING 118
SWIDTH 611 0
DWIDTH 11 0
BBX 9 11 0 0
BITMAP
C19F
C1FC
C19F
637C
631F
6334
361E
363C
3E00
1C30
1C00
ENDCHAR
STARTCHAR w
ENCODING 119
SWIDTH 833 0
DWIDTH 15 0
BBX 13 11 0 0
BITMAP
C018
C01C
C018
C21C
C718
6730
6DB0
6DB0
7DF0
38E0
38E0
ENDCHAR
STARTCHAR x
ENCODING 120
SWIDTH 500 0
DWIDTH 9 0
BBX 7 11 0 0
BITMAP
C7
C6
6C
7C
39
11
38
7C
6C
C6
C6
ENDCHAR
STARTCHAR y
ENCODING 121
SWIDTH 555 0
DWIDTH 10 0
BBX 8 15 0 -4
BITMAP
C3
C3
C3
C3
C3
C3
C3
C3
73
7F
1F
03
06
7E
78
ENDCHAR
STARTCHAR z
ENCODING 122
SWIDTH 444 0
DWIDTH 8 0
BBX 7 11 0 0
BITMAP
FF
FE
0D
18
19
30
31
60
60
FE
FE
ENDCHAR
STARTCHAR braceleft
ENCODING 123
SWIDTH 388 0
DWIDTH 7 0
BBX 5 16 0 -1
BITMAP
1B
30
31
34
33
30
71
E4
77
37
37
36
37
36
37
18
ENDCHAR
STARTCHAR bar
ENCODING 124
SWIDTH 222 0
DWIDTH 4 0
BBX 2 18 0 -3
BITMAP
D3
DF
FE
CC
D3
DF
F4
DC
D3
C3
D2
CC
C1
EE
C2
E2
C0
C0
ENDCHAR
STARTCHAR braceright
ENCODING 125
SWIDTH 388 0
DWIDTH 7 0
BBX 5 16 0 -1
BITMAP
C3
67
66
64
63
67
70
3C
70
60
60
60
60
64
60
C6
ENDCHAR
STARTCHAR asciitilde
ENCODING 126
SWIDTH 500 0
DWIDTH 9 0
BBX 6 3 1 14
BITMAP
67
FF
9A
ENDCHAR
STARTCHAR Adieresis
ENCODING 196
SWIDTH 611 0
DWIDTH 11 0
BBX 9 17 0 0
BITMAP
6320
630C
001F
1C3C
7F00
6300
E380
C180
C180
FF80
FF80
C1B0
C180
C1A0
C180
C1C0
C180
ENDCHAR
STARTCHAR Aring
ENCODING 197
SWIDTH 611 0
DWIDTH 11 0
BBX 9 18 0 0
BITMAP
1C20
220C
1C1E
001C
1C70
7F70
6360
E3E0
C1E0
C180
FF80
FF80
C180
C1A0
C180
C1B8
C180
C1A8
ENDCHAR
STARTCHAR Ccedilla
ENCODING 199
SWIDTH 555 0
DWIDTH 10 0
BBX 8 18 0 -4
BITMAP
0F
3F
78
60
E0
C0
C0
C0
C0
E0
60
78
3F
0F
0C
1C
78
70
ENDCHAR
STARTCHAR Eacute
ENCODING 201
SWIDTH 555 0
DWIDTH 10 0
BBX 8 18 0 0
BITMAP
0E
0C
18
00
FF
FF
C0
C0
C0
C0
FF
FF
C0
C0
C0
C0
FF
FF
ENDCHAR
STARTCHAR Ntilde
ENCODING 209
SWIDTH 666 0
DWIDTH 12 0
BBX 10 18 0 0
BITMAP
191F
3F3C
261E
002C
E0C0
E0E8
F0C0
F0D8
D8FF
D8E0
CCC0
CCC0
C6E0
C6F8
C3CF
C3DC
C1C0
C1E8
ENDCHAR
STARTCHAR Odieresis
ENCODING 214
SWIDTH 722 0
DWIDTH 13 0
BBX 11 17 0 0
BITMAP
319F
319C
001F
0E0C
3F80
7BD0
60C0
E0E0
C07E
C06C
C060
C06C
E0E0
60C8
7BC0
3F88
0E00
ENDCHAR
STARTCHAR Udieresis
ENCODING 220
SWIDTH 611 0
DWIDTH 11 0
BBX 9 17 0 0
BITMAP
6314
631C
001F
C1DC
C1A0
C18C
C1A0
C18C
C180
C1FF
C189
C1F4
C19F
E3A8
6322
7F10
1C00
ENDCHAR
STARTCHAR aacute
ENCODING 225
SWIDTH 555 0
DWIDTH 10 0
BBX 8 15 0 0
BITMAP
1C
18
30
00
78
7E
0E
03
3F
7F
E3
C3
CF
FF
7B
ENDCHAR
STARTCHAR agrave
ENCODING 224
SWIDTH 555 0
DWIDTH 10 0
BBX 8 15 0 0
BITMAP
70
30
18
00
78
7E
0E
03
3F
7F
E3
C3
CF
FF
7B
ENDCHAR
STARTCHAR acircumflex
ENCODING 226
SWIDTH 555 0
DWIDTH 10 0
BBX 8 15 0 0
BITMAP
18
3C
66
00
78
7E
0E
03
3F
7F
E3
C3
CF
FF
7B
ENDCHAR
STARTCHAR adieresis
ENCODING 228
SWIDTH 555 0
DWIDTH 10 0
BBX 8 14 0 0
BITMAP
66
66
00
78
7E
0E
03
3F
7F
E3
C3
CF
FF
7B
ENDCHAR
STARTCHAR atilde
ENCODING 227
SWIDTH 555 0
DWIDTH 10 0
BBX 8 15 0 0
BITMAP
32
7E
4C
00
78
7E
0E
03
3F
7F
E3
C3
CF
FF
7B
ENDCHAR
STARTCHAR aring
ENCODING 229
SWIDTH 555 0
DWIDTH 10 0
BBX 8 15 0 0
BITMAP
18
24
18
00
78
7E
0E
03
3F
7F
E3
C3
CF
FF
7B
ENDCHAR
STARTCHAR ccedilla
ENCODING 231
SWIDTH 500 0
DWIDTH 9 0
BBX 7 14 0 -3
BITMAP
1F
7E
71
C0
C1
C1
C0
C0
71
7F
1E
18
F9
E1
ENDCHAR
STARTCHAR eacute
ENCODING 233
SWIDTH 555 0
DWIDTH 10 0
BBX 8 15 0 0
BITMAP
0E
0C
18
00
1E
7F
73
C3
FF
FE
C0
C0
70
7E
1E
ENDCHAR
STARTCHAR egrave
ENCODING 232
SWIDTH 555 0
DWIDTH 10 0
BBX 8 15 0 0
BITMAP
38
18
0C
00
1E
7F
73
C3
FF
FE
C0
C0
70
7E
1E
ENDCHAR
STARTCHAR ecircumflex
ENCODING 234
SWIDTH 555 0
DWIDTH 10 0
BBX 8 15 0 0
BITMAP
18
3C
66
00
1E
7F
73
C3
FF
FE
C0
C0
70
7E
1E
ENDCHAR
STARTCHAR edieresis
ENCODING 235
SWIDTH 555 0
DWIDTH 10 0
BBX 8 14 0 0
BITMAP
66
66
00
1E
7F
73
C3
FF
FE
C0
C0
70
7E
1E
ENDCHAR
STARTCHAR iacute
ENCODING 237
SWIDTH 222 0
DWIDTH 4 0
BBX 4 15 0 0
BITMAP
73
60
CA
04
C3
CF
CE
C4
CA
CF
C0
C8
C0
C0
C5
ENDCHAR
STARTCHAR igrave
ENCODING 236
SWIDTH 277 0
DWIDTH 5 0
BBX 4 15 -1 0
BITMAP
E3
60
3A
04
33
3E
38
34
33
3F
37
30
30
3E
30
ENDCHAR
STARTCHAR icircumflex
ENCODING 238
SWIDTH 277 0
DWIDTH 5 0
BBX 6 15 -1 0
BITMAP
33
78
CC
00
33
33
32
30
33
30
32
30
30
30
30
ENDCHAR
STARTCHAR idieresis
ENCODING 239
SWIDTH 277 0
DWIDTH 5 0
BBX 6 15 -1 0
BITMAP
CF
CF
03
00
33
33
30
30
30
33
30
30
30
33
30
ENDCHAR
STARTCHAR ntilde
ENCODING 241
SWIDTH 555 0
DWIDTH 10 0
BBX 8 15 0 0
BITMAP
32
7E
4C
00
F8
FE
CE
C3
C3
C3
C3
C3
C3
C3
C3
ENDCHAR
STARTCHAR oacute
ENCODING 243
SWIDTH 666 0
DWIDTH 12 0
BBX 10 15 0 0
BITMAP
0720
063C
0C1F
002C
1E00
7F80
738C
C0FC
C0C0
C0C4
C0C0
C0C0
7380
7F80
1E00
ENDCHAR
STARTCHAR ograve
ENCODING 242
SWIDTH 666 0
DWIDTH 12 0
BBX 10 15 0 0
BITMAP
3820
183C
0C1E
000C
1E00
7F80
7380
C0DC
C0C2
C0C1
C0CD
C0CE
7380
7F80
1E0F
ENDCHAR
STARTCHAR ocircumflex
ENCODING 244
SWIDTH 666 0
DWIDTH 12 0
BBX 10 15 0 0
BITMAP
0C14
1E1C
331F
002C
1E00
7FA0
7380
C0D0
C0E5
C0E5
C0C0
C0EC
7380
7FB0
1E00
ENDCHAR
STARTCHAR odieresis
ENCODING 246
SWIDTH 666 0
DWIDTH 12 0
BBX 10 14 0 0
BITMAP
331F
331C
001F
1E24
7F80
7380
C0C0
C0CA
C0C1
C0C1
C0C6
738A
7F80
1E20
ENDCHAR
STARTCHAR otilde
ENCODING 245
SWIDTH 666 0
DWIDTH 12 0
BBX 10 15 0 0
BITMAP
191F
3F1C
2620
003C
1E00
7F80
738C
C0FC
C0C0
C0C4
C0C0
C0C0
7380
7F80
1E00
ENDCHAR
STARTCHAR uacute
ENCODING 250
SWIDTH 555 0
DWIDTH 10 0
BBX 8 15 0 0
BITMAP
0E
0C
18
00
C3
C3
C3
C3
C3
C3
C3
C3
73
7F
1F
ENDCHAR
STARTCHAR ugrave
ENCODING 249
SWIDTH 555 0
DWIDTH 10 0
BBX 8 15 0 0
BITMAP
70
30
18
00
C3
C3
C3
C3
C3
C3
C3
C3
73
7F
1F
ENDCHAR
STARTCHAR ucircumflex
ENCODING 251
SWIDTH 555 0
DWIDTH 10 0
BBX 8 15 0 0
BITMAP
18
3C
66
00
C3
C3
C3
C3
C3
C3
C3
C3
73
7F
1F
ENDCHAR
STARTCHAR udieresis
ENCODING 252
SWIDTH 555 0
DWIDTH 10 0
BBX 8 14 0 0
BITMAP
66
66
00
C3
C3
C3
C3
C3
C3
C3
C3
73
7F
1F
ENDCHAR
STARTCHAR dagger
ENCODING 8224
SWIDTH 444 0
DWIDTH 8 0
BBX 6 8 0 7
BITMAP
33
33
FF
FC
33
33
30
30
ENDCHAR
STARTCHAR degree
ENCODING 176
SWIDTH 333 0
DWIDTH 6 0
BBX 4 4 0 10
BITMAP
63
90
9A
6C
ENDCHAR
STARTCHAR cent
ENCODING 162
SWIDTH 500 0
DWIDTH 9 0
BBX 7 13 0 -1
BITMAP
19
19
1E
7E
71
C0
C0
C0
70
7E
1E
19
18
ENDCHAR
STARTCHAR sterling
ENCODING 163
SWIDTH 666 0
DWIDTH 12 0
BBX 10 14 0 0
BITMAP
1E1F
3F04
331F
731C
6000
6020
F800
F810
60D4
60DC
61DF
67A4
FF00
FC20
ENDCHAR
STARTCHAR section
ENCODING 167
SWIDTH 555 0
DWIDTH 10 0
BBX 8 16 0 -1
BITMAP
3C
7E
E3
C3
F0
FC
DE
C7
E3
7B
3F
0F
C3
C7
7E
3C
ENDCHAR
STARTCHAR bullet
ENCODING 8226
SWIDTH 388 0
DWIDTH 7 0
BBX 5 5 0 4
BITMAP
73
FF
FF
FC
73
ENDCHAR
STARTCHAR paragraph
ENCODING 182
SWIDTH 722 0
DWIDTH 13 0
BBX 11 14 0 0
BITMAP
1F7F
7F7C
737F
C36C
C360
7360
7F60
1F70
037F
0364
037F
0374
0360
0360
ENDCHAR
STARTCHAR germandbls
ENCODING 223
SWIDTH 611 0
DWIDTH 11 0
BBX 9 18 0 -4
BITMAP
3C20
7F4C
671E
61B4
C180
C3A0
CF00
CF08
C39F
C1BC
C19F
C74C
CF1F
CC3C
C020
C034
C000
C028
ENDCHAR
STARTCHAR registered
ENCODING 174
SWIDTH 777 0
DWIDTH 14 0
BBX 12 12 0 1
BITMAP
0F04
30CC
402E
4E24
8910
8918
8E10
8A10
4927
402C
30C4
0F0C
ENDCHAR
STARTCHAR copyright
ENCODING 169
SWIDTH 777 0
DWIDTH 14 0
BBX 12 12 0 1
BITMAP
0F0F
30C4
402F
472C
8811
9011
9016
8815
4720
402C
30C8
0F0C
ENDCHAR
STARTCHAR trademark
ENCODING 8482
SWIDTH 833 0
DWIDTH 15 0
BBX 13 5 0 9
BITMAP
FA0F
231C
22AC
224C
2208
ENDCHAR
STARTCHAR acute
ENCODING 180
SWIDTH 444 0
DWIDTH 8 0
BBX 5 3 1 14
BITMAP
3B
77
E4
ENDCHAR
STARTCHAR dieresis
ENCODING 168
SWIDTH 444 0
DWIDTH 8 0
BBX 6 2 0 14
BITMAP
CF
CF
ENDCHAR
STARTCHAR notequal
ENCODING 8800
SWIDTH 555 0
DWIDTH 10 0
BBX 8 10 0 1
BITMAP
06
06
FF
FF
18
18
FF
FF
60
60
ENDCHAR
STARTCHAR AE
ENCODING 198
SWIDTH 833 0
DWIDTH 15 0
BBX 13 14 0 0
BITMAP
1FFF
7FFC
6300
E304
C300
C300
FFF8
FFFC
C300
C300
C300
C300
C3F8
C3F8
ENDCHAR
STARTCHAR Oslash
ENCODING 216
SWIDTH 722 0
DWIDTH 13 0
BBX 11 14 0 0
BITMAP
0E7F
3FF4
7BDF
61C4
E3E0
C660
C66B
CC63
CC7F
F8E0
70C0
7BD0
FF80
CE00
ENDCHAR
STARTCHAR infinity
ENCODING 8734
SWIDTH 833 0
DWIDTH 15 0
BBX 13 7 0 3
BITMAP
18C0
7DF4
6736
C71C
6737
7DF2
18C5
ENDCHAR
STARTCHAR plusminus
ENCODING 177
SWIDTH 555 0
DWIDTH 10 0
BBX 8 11 0 1
BITMAP
18
18
18
FF
FF
18
18
18
00
FF
FF
ENDCHAR
STARTCHAR lessequal
ENCODING 8804
SWIDTH 444 0
DWIDTH 8 0
BBX 6 10 0 1
BITMAP
1B
3A
70
E0
73
3B
18
00
FC
FC
ENDCHAR
STARTCHAR greaterequal
ENCODING 8805
SWIDTH 444 0
DWIDTH 8 0
BBX 6 10 0 1
BITMAP
63
70
3B
1C
3B
73
63
00
FC
FC
ENDCHAR
STARTCHAR yen
ENCODING 165
SWIDTH 666 0
DWIDTH 12 0
BBX 10 14 0 0
BITMAP
C0DF
C0C4
619F
61A4
3330
3330
1E00
7F80
7F80
0C00
7F80
7F80
0C00
0C20
ENDCHAR
STARTCHAR mu
ENCODING 181
SWIDTH 611 0
DWIDTH 11 0
BBX 11 14 -1 -3
BITMAP
619E
6184
619F
6194
6180
6180
6180
6190
639E
7FEC
7DFF
601C
C000
C000
ENDCHAR
STARTCHAR partialdiff
ENCODING 8706
SWIDTH 555 0
DWIDTH 10 0
BBX 8 14 0 0
BITMAP
70
78
1C
0E
06
0F
3F
7B
E3
C7
C6
DE
FC
70
ENDCHAR
STARTCHAR summation
ENCODING 8721
SWIDTH 611 0
DWIDTH 11 0
BBX 9 14 0 0
BITMAP
FF9F
FFDC
701F
384C
1C00
0E20
0700
0710
0E1F
1C04
381F
7024
FF80
FFA0
ENDCHAR
STARTCHAR product
ENCODING 8719
SWIDTH 888 0
DWIDTH 16 0
BBX 14 16 0 0
BITMAP
000C
000C
7FFE
FFF8
D860
D860
1860
1860
1860
1860
1860
1860
1860
1860
1860
1860
ENDCHAR
STARTCHAR pi
ENCODING 960
SWIDTH 833 0
DWIDTH 15 0
BBX 13 13 0 0
BITMAP
001F
001C
7FFF
FFF4
D8C0
D8C0
18C0
18C0
18C0
18C0
18C0
18C0
18C0
ENDCHAR
STARTCHAR integral
ENCODING 8747
SWIDTH 500 0
DWIDTH 9 0
BBX 8 22 -1 -4
BITMAP
07
0F
0C
0C
1C
18
18
18
18
18
18
18
18
18
18
18
18
38
30
30
F0
E0
ENDCHAR
STARTCHAR ordfeminine
ENCODING 170
SWIDTH 444 0
DWIDTH 8 0
BBX 6 11 0 4
BITMAP
73
7A
0C
7C
FF
CC
FC
6C
00
FC
FC
ENDCHAR
STARTCHAR ordmasculine
ENCODING 186
SWIDTH 444 0
DWIDTH 8 0
BBX 6 11 0 4
BITMAP
33
78
CF
CC
CF
CF
7A
30
00
FC
FC
ENDCHAR
STARTCHAR Omega
ENCODING 937
SWIDTH 833 0
DWIDTH 15 0
BBX 13 14 0 0
BITMAP
0700
1FC4
3DE4
3064
7070
6030
6030
6030
6035
7074
3065
18C7
F8F8
F8F8
ENDCHAR
STARTCHAR ae
ENCODING 230
SWIDTH 888 0
DWIDTH 16 0
BBX 14 11 0 0
BITMAP
787B
7FFC
0FCF
030C
3FFD
7FF8
E301
C300
CFC0
FFF8
7B78
ENDCHAR
STARTCHAR oslash
ENCODING 248
SWIDTH 666 0
DWIDTH 12 0
BBX 10 11 0 0
BITMAP
1ED4
7FDC
739F
C2FC
C6C0
CCC0
D8C0
D0C0
7380
FF80
DE00
ENDCHAR
STARTCHAR questiondown
ENCODING 191
SWIDTH 611 0
DWIDTH 11 0
BBX 9 14 0 -1
BITMAP
0C20
0C6C
001F
000C
0C00
0C00
3C00
781C
E002
C181
C18E
770E
7F00
1C20
ENDCHAR
STARTCHAR exclamdown
ENCODING 161
SWIDTH 277 0
DWIDTH 5 0
BBX 2 14 0 -1
BITMAP
D3
DF
28
0C
D3
DF
FE
D4
C0
C0
C3
C0
C0
C0
ENDCHAR
STARTCHAR logicalnot
ENCODING 172
SWIDTH 555 0
DWIDTH 10 0
BBX 8 5 0 3
BITMAP
FF
FF
03
03
03
ENDCHAR
STARTCHAR radical
ENCODING 8730
SWIDTH 611 0
DWIDTH 11 0
BBX 9 11 0 0
BITMAP
00A0
01AC
019F
0364
0300
0620
C600
EC38
7C14
381C
1815
ENDCHAR
STARTCHAR florin
ENCODING 402
SWIDTH 500 0
DWIDTH 9 0
BBX 8 22 -1 -4
BITMAP
07
0F
0C
0C
1C
18
18
18
18
7E
7E
18
18
18
18
18
18
38
30
30
F0
E0
ENDCHAR
STARTCHAR approxequal
ENCODING 8776
SWIDTH 555 0
DWIDTH 10 0
BBX 8 7 0 3
BITMAP
71
FF
8E
00
71
FF
8E
ENDCHAR
STARTCHAR increment
ENCODING 8710
SWIDTH 777 0
DWIDTH 14 0
BBX 12 12 0 0
BITMAP
0604
060C
0F00
0F04
1980
1988
30C0
30C8
6060
6060
FFF0
FFF3
ENDCHAR
STARTCHAR guillemotleft
ENCODING 171
SWIDTH 722 0
DWIDTH 13 0
BBX 11 9 0 1
BITMAP
0C7F
1CE4
39DF
7384
E701
7381
39C0
1CE0
0C60
ENDCHAR
STARTCHAR guillemotright
ENCODING 187
SWIDTH 722 0
DWIDTH 13 0
BBX 11 9 0 1
BITMAP
C61F
E704
739F
39CC
1CFF
39DF
7380
E700
C600
ENDCHAR
STARTCHAR ellipsis
ENCODING 8230
SWIDTH 666 0
DWIDTH 12 0
BBX 10 2 0 0
BITMAP
CCDF
CCC4
ENDCHAR
STARTCHAR nbspace
ENCODING 160
SWIDTH 444 0
DWIDTH 8 0
BBX 0 0 0 0
BITMAP
ENDCHAR
STARTCHAR Agrave
ENCODING 192
SWIDTH 611 0
DWIDTH 11 0
BBX 9 18 0 0
BITMAP
381F
1864
0C1F
0044
1C00
7F04
6300
E380
C180
C180
FF80
FF80
C180
C180
C180
C180
C180
C1A8
ENDCHAR
STARTCHAR Atilde
ENCODING 195
SWIDTH 611 0
DWIDTH 11 0
BBX 9 18 0 0
BITMAP
391F
7F7C
4E1F
006C
1C7C
7F4A
6315
E3F0
C180
C180
FF92
FFDC
C18C
C1FC
C18C
C1FC
C180
C1A8
ENDCHAR
STARTCHAR Otilde
ENCODING 213
SWIDTH 722 0
DWIDTH 13 0
BBX 11 18 0 0
BITMAP
1C94
3F9C
2700
0014
0E0D
3F92
7BD0
60D9
E0ED
C061
C06F
C060
C06F
E0E1
60CD
7BC3
3F80
0E08
ENDCHAR
STARTCHAR OE
ENCODING 338
SWIDTH 888 0
DWIDTH 16 0
BBX 14 14 0 0
BITMAP
0FFF
3FFC
7983
6180
E180
C180
C1FC
C1FC
C180
E180
6181
7980
3FFC
0FFC
ENDCHAR
STARTCHAR oe
ENCODING 339
SWIDTH 888 0
DWIDTH 16 0
BBX 14 11 0 0
BITMAP
1C7B
7FFC
77CF
C30C
C3FC
C3F8
C301
C302
77C0
7FF8
1C78
ENDCHAR
STARTCHAR endash
ENCODING 8211
SWIDTH 555 0
DWIDTH 10 0
BBX 8 2 0 5
BITMAP
FF
FF
ENDCHAR
STARTCHAR emdash
ENCODING 8212
SWIDTH 777 0
DWIDTH 14 0
BBX 12 2 0 5
BITMAP
FFFF
FFF4
ENDCHAR
STARTCHAR quotedblleft
ENCODING 8220
SWIDTH 500 0
DWIDTH 9 0
BBX 7 5 0 10
BITMAP
23
67
CC
CC
CD
ENDCHAR
STARTCHAR quotedblright
ENCODING 8221
SWIDTH 500 0
DWIDTH 9 0
BBX 7 5 0 10
BITMAP
67
67
67
CC
89
ENDCHAR
STARTCHAR quoteleft
ENCODING 8216
SWIDTH 277 0
DWIDTH 5 0
BBX 3 5 0 10
BITMAP
33
60
DD
C4
D3
ENDCHAR
STARTCHAR quoteright
ENCODING 8217
SWIDTH 277 0
DWIDTH 5 0
BBX 3 5 0 10
BITMAP
73
7F
6F
CC
93
ENDCHAR
STARTCHAR divide
ENCODING 247
SWIDTH 555 0
DWIDTH 10 0
BBX 8 10 0 1
BITMAP
18
18
00
00
FF
FF
00
00
18
18
ENDCHAR
STARTCHAR lozenge
ENCODING 9674
SWIDTH 777 0
DWIDTH 14 0
BBX 12 12 0 0
BITMAP
0604
0F0C
1F80
39CC
70E0
E070
E070
70E0
39C0
1F80
0F00
0600
ENDCHAR
STARTCHAR ydieresis
ENCODING 255
SWIDTH 555 0
DWIDTH 10 0
BBX 8 18 0 -4
BITMAP
66
66
00
C3
C3
C3
C3
C3
C3
C3
C3
73
7F
1F
03
07
7E
7C
ENDCHAR
STARTCHAR Ydieresis
ENCODING 376
SWIDTH 666 0
DWIDTH 12 0
BBX 10 17 0 0
BITMAP
331F
330C
001E
C0F4
C0C0
6188
6180
3310
3327
1E21
1E25
0C04
0C00
0C18
0C00
0C28
0C00
ENDCHAR
STARTCHAR fraction1
ENCODING 8260
SWIDTH 611 0
DWIDTH 11 0
BBX 9 16 0 -1
BITMAP
019F
01CC
0314
031C
0600
0604
0C00
0C00
1800
1800
3000
3001
6020
6018
C00C
C034
ENDCHAR
STARTCHAR Euro
ENCODING 8364
SWIDTH 555 0
DWIDTH 10 0
BBX 8 14 0 0
BITMAP
0F
3F
78
60
FC
FC
C0
C0
FC
FC
60
78
3F
0F
ENDCHAR
STARTCHAR guilsinglleft
ENCODING 8249
SWIDTH 444 0
DWIDTH 8 0
BBX 6 9 0 1
BITMAP
0F
1C
38
70
E3
70
38
1C
0C
ENDCHAR
STARTCHAR guilsinglright
ENCODING 8250
SWIDTH 444 0
DWIDTH 8 0
BBX 6 9 0 1
BITMAP
C3
E3
72
38
1F
3B
70
E0
C0
ENDCHAR
STARTCHAR fi
ENCODING 64257
SWIDTH 500 0
DWIDTH 9 0
BBX 7 15 0 0
BITMAP
1D
7D
70
C0
C1
C1
FE
FE
C7
C7
C7
C6
C7
C7
C7
ENDCHAR
STARTCHAR fl
ENCODING 64258
SWIDTH 500 0
DWIDTH 9 0
BBX 7 15 0 0
BITMAP
1F
7F
76
C6
C7
C7
FF
FE
C6
C6
C6
C6
C6
C6
C6
ENDCHAR
STARTCHAR daggerdbl
ENCODING 8225
SWIDTH 611 0
DWIDTH 11 0
BBX 9 15 0 -1
BITMAP
081F
1C4C
1C20
0864
6B00
FF84
6B00
0804
6B00
FF80
6B00
0800
1C00
1C00
0815
ENDCHAR
STARTCHAR periodcentered
ENCODING 183
SWIDTH 333 0
DWIDTH 6 0
BBX 3 4 1 4
BITMAP
53
F4
E4
5C
ENDCHAR
STARTCHAR quotesinglbase
ENCODING 8218
SWIDTH 277 0
DWIDTH 5 0
BBX 3 5 0 -2
BITMAP
73
7F
70
DC
93
ENDCHAR
STARTCHAR quotedblbase
ENCODING 8222
SWIDTH 500 0
DWIDTH 9 0
BBX 7 5 0 -1
BITMAP
67
67
66
CC
89
ENDCHAR
STARTCHAR perthousand
ENCODING 8240
SWIDTH 777 0
DWIDTH 14 0
BBX 12 14 0 0
BITMAP
430F
E30C
A604
A60C
EC0E
4C06
1806
1806
3226
3770
6550
6552
C770
C220
ENDCHAR
STARTCHAR Acircumflex
ENCODING 194
SWIDTH 611 0
DWIDTH 11 0
BBX 9 18 0 0
BITMAP
1C1F
3E0C
631F
001C
1C00
7F00
6300
E3E6
C1CC
C180
FF80
FF80
C180
C1A0
C180
C1F8
C180
C1A8
ENDCHAR
STARTCHAR Ecircumflex
ENCODING 202
SWIDTH 555 0
DWIDTH 10 0
BBX 8 18 0 0
BITMAP
18
3C
66
00
FF
FF
C0
C0
C0
C0
FF
FF
C0
C0
C0
C0
FF
FF
ENDCHAR
STARTCHAR Aacute
ENCODING 193
SWIDTH 611 0
DWIDTH 11 0
BBX 9 18 0 0
BITMAP
0E1F
0C3C
181F
000C
1C69
7F64
6300
E39C
C180
C190
FF80
FF90
C1E5
C1E9
C1EC
C180
C180
C1A8
ENDCHAR
STARTCHAR Edieresis
ENCODING 203
SWIDTH 555 0
DWIDTH 10 0
BBX 8 17 0 0
BITMAP
66
66
00
FF
FF
C0
C0
C0
C0
FF
FF
C0
C0
C0
C0
FF
FF
ENDCHAR
STARTCHAR Egrave
ENCODING 200
SWIDTH 555 0
DWIDTH 10 0
BBX 8 18 0 0
BITMAP
70
30
18
00
FF
FF
C0
C0
C0
C0
FF
FF
C0
C0
C0
C0
FF
FF
ENDCHAR
STARTCHAR Iacute
ENCODING 205
SWIDTH 222 0
DWIDTH 4 0
BBX 4 18 0 0
BITMAP
73
6F
C4
04
C3
CF
CF
CC
C0
C0
CF
CF
C0
C0
C0
C0
CF
CF
ENDCHAR
STARTCHAR Icircumflex
ENCODING 206
SWIDTH 277 0
DWIDTH 5 0
BBX 6 18 -1 0
BITMAP
33
7B
CC
00
33
33
33
30
30
30
30
30
30
30
33
30
30
30
ENDCHAR
STARTCHAR Idieresis
ENCODING 207
SWIDTH 277 0
DWIDTH 5 0
BBX 6 17 -1 0
BITMAP
CF
CF
01
30
33
30
32
30
30
30
30
30
30
30
32
30
30
ENDCHAR
STARTCHAR Igrave
ENCODING 204
SWIDTH 277 0
DWIDTH 5 0
BBX 4 18 -1 0
BITMAP
E3
64
34
0C
33
30
31
3C
30
30
30
30
31
32
32
31
30
30
ENDCHAR
STARTCHAR Oacute
ENCODING 211
SWIDTH 722 0
DWIDTH 13 0
BBX 11 18 0 0
BITMAP
071F
0604
0C14
001C
0E00
3F80
7BC0
60C0
E0E0
C060
C060
C060
C060
E0E8
60D3
7BD4
3F80
0E08
ENDCHAR
STARTCHAR Ocircumflex
ENCODING 212
SWIDTH 722 0
DWIDTH 13 0
BBX 11 18 0 0
BITMAP
0E1F
1F1C
319F
000C
0E01
3F81
7BC0
60C0
E0E0
C060
C062
C061
C060
E0E0
60C0
7BC0
3F80
0E08
ENDCHAR
STARTCHAR apple
ENCODING 63743
SWIDTH 722 0
DWIDTH 13 0
BBX 11 15 0 0
BITMAP
64DF
8ABC
8EC0
6AA4
0000
3100
2A80
3380
2A80
3280
0000
0900
0A80
0A80
3100
ENDCHAR
STARTCHAR Ograve
ENCODING 210
SWIDTH 722 0
DWIDTH 13 0
BBX 11 18 0 0
BITMAP
1C14
0C1C
061F
0004
0E1E
3F9F
7BC0
60CF
E0F0
C060
C07F
C07F
C060
E0FF
60DF
7BD0
3F80
0E08
ENDCHAR
STARTCHAR Uacute
ENCODING 218
SWIDTH 611 0
DWIDTH 11 0
BBX 9 18 0 0
BITMAP
0E1F
0C74
181F
007C
C1A0
C1E4
C19F
C1DC
C180
C180
C180
C180
C180
C180
E380
6300
7F00
1C28
ENDCHAR
STARTCHAR Ucircumflex
ENCODING 219
SWIDTH 611 0
DWIDTH 11 0
BBX 9 18 0 0
BITMAP
1C1F
3E74
631F
0014
C180
C198
C180
C1A0
C1A0
C1D4
C1A0
C188
C18E
C184
E3A0
6368
7F00
1C28
ENDCHAR
STARTCHAR Ugrave
ENCODING 217
SWIDTH 611 0
DWIDTH 11 0
BBX 9 18 0 0
BITMAP
3814
181C
0C1F
0024
C180
C180
C1FF
C1A4
C180
C198
C180
C1F0
C1A0
C1E4
E39F
6344
7F00
1C28
ENDCHAR
STARTCHAR dotlessi
ENCODING 305
SWIDTH 222 0
DWIDTH 4 0
BBX 2 11 0 0
BITMAP
D3
DF
D5
CC
D3
D4
C4
DC
C0
C0
C0
ENDCHAR
STARTCHAR s with accent tone
ENCODING 353
SWIDTH 500 0
DWIDTH 9 0
BBX 7 15 0 0
BITMAP
66
3C
18
00
7F
FE
C0
C0
71
7C
1C
06
06
FE
FC
ENDCHAR
STARTCHAR circumflex
ENCODING 710
SWIDTH 444 0
DWIDTH 8 0
BBX 6 3 0 14
BITMAP
33
78
CD
ENDCHAR
STARTCHAR tilde
ENCODING 732
SWIDTH 500 0
DWIDTH 9 0
BBX 7 3 0 14
BITMAP
73
FF
9C
ENDCHAR
STARTCHAR macron
ENCODING 175
SWIDTH 444 0
DWIDTH 8 0
BBX 6 2 0 14
BITMAP
FF
FF
ENDCHAR
STARTCHAR breve
ENCODING 728
SWIDTH 444 0
DWIDTH 8 0
BBX 6 3 0 14
BITMAP
87
FF
79
ENDCHAR
STARTCHAR dotaccent
ENCODING 729
SWIDTH 222 0
DWIDTH 4 0
BBX 2 2 0 14
BITMAP
D3
DF
ENDCHAR
STARTCHAR ring
ENCODING 730
SWIDTH 333 0
DWIDTH 6 0
BBX 4 3 0 14
BITMAP
63
9F
62
ENDCHAR
STARTCHAR cedilla
ENCODING 184
SWIDTH 388 0
DWIDTH 7 0
BBX 5 4 0 -4
BITMAP
1B
18
F2
E4
ENDCHAR
STARTCHAR hungarumlaut
ENCODING 733
SWIDTH 611 0
DWIDTH 11 0
BBX 9 4 0 14
BITMAP
199F
333C
6620
CC2C
ENDCHAR
STARTCHAR ogonek
ENCODING 731
SWIDTH 444 0
DWIDTH 8 0
BBX 6 5 0 -4
BITMAP
23
60
CE
FC
73
ENDCHAR
STARTCHAR caron
ENCODING 711
SWIDTH 500 0
DWIDTH 9 0
BBX 7 5 0 13
BITMAP
83
C7
6C
38
11
ENDCHAR
ENDFONT
